<?xml version="1.0" standalone="no"?>
<!DOCTYPE svg PUBLIC "-//W3C//DTD SVG 20010904//EN"
 "http://www.w3.org/TR/2001/REC-SVG-20010904/DTD/svg10.dtd">
<svg version="1.0" xmlns="http://www.w3.org/2000/svg"
 width="500.000000pt" height="500.000000pt" viewBox="0 0 500.000000 500.000000"
 preserveAspectRatio="xMidYMid meet">

<g transform="translate(0.000000,500.000000) scale(0.100000,-0.100000)"
fill="#000000" stroke="none">
<path d="M1900 3775 l0 -35 -75 0 -75 0 0 -35 c0 -33 -2 -35 -35 -35 l-35 0 0
-75 0 -75 -35 0 -35 0 0 -75 0 -75 -40 0 -40 0 0 -110 0 -110 -35 0 -35 0 0
-335 0 -335 35 0 c33 0 35 -2 35 -35 l0 -35 110 0 110 0 0 35 c0 34 1 35 41
35 l40 0 -3 38 c-3 35 -5 37 -38 37 -33 0 -35 -2 -38 -37 l-3 -38 -110 0 -109
0 0 335 0 335 40 0 40 0 0 110 0 110 35 0 35 0 0 75 0 75 35 0 35 0 0 75 0 75
75 0 75 0 0 35 0 35 110 0 110 0 0 -35 0 -35 335 0 335 0 0 35 0 35 110 0 110
0 0 -35 0 -35 75 0 75 0 0 -75 0 -75 35 0 35 0 0 -75 0 -75 40 0 40 0 0 -110
0 -110 35 0 35 0 0 -335 0 -335 -110 0 -110 0 0 40 c0 39 -1 40 -34 40 -32 0
-35 3 -38 33 -3 29 -6 32 -40 35 l-38 3 0 75 0 74 -75 0 -75 0 0 35 0 35 -405
0 -405 0 0 -35 0 -35 -75 0 -75 0 0 -75 0 -75 -35 0 c-33 0 -35 -2 -35 -35 0
-33 2 -35 35 -35 33 0 35 2 35 35 0 33 2 35 35 35 33 0 35 2 35 34 0 33 2 35
38 38 35 3 37 5 40 41 l3 37 404 0 404 0 3 -37 c3 -36 5 -38 41 -41 35 -3 37
-5 37 -38 0 -32 2 -34 35 -34 33 0 35 -2 35 -35 0 -34 1 -35 40 -35 l40 0 0
-40 c0 -39 1 -40 35 -40 33 0 35 -2 35 -35 l0 -35 110 0 110 0 0 35 c0 33 2
35 35 35 l35 0 0 335 0 335 -35 0 -35 0 0 110 0 110 -35 0 -35 0 0 75 0 75
-40 0 -40 0 0 75 0 75 -35 0 c-33 0 -35 2 -35 35 l0 35 -75 0 -75 0 0 35 0 35
-110 0 -110 0 0 -35 0 -35 -335 0 -335 0 0 35 0 35 -110 0 -110 0 0 -35z"/>
<path d="M1830 3410 l0 -110 110 0 110 0 0 110 0 110 -110 0 -110 0 0 -110z
m140 -5 c0 -33 -2 -35 -35 -35 -33 0 -35 2 -35 35 0 33 2 35 35 35 33 0 35 -2
35 -35z"/>
<path d="M2940 3486 c0 -33 -2 -35 -37 -38 -36 -3 -38 -5 -41 -40 l-3 -38 40
0 c40 0 41 -1 41 -35 0 -33 2 -35 35 -35 33 0 35 2 35 35 0 34 1 35 41 35 l40
0 -3 38 c-3 35 -5 37 -40 40 -36 3 -38 5 -38 38 0 32 -2 34 -35 34 -33 0 -35
-2 -35 -34z m70 -81 c0 -33 -2 -35 -35 -35 -33 0 -35 2 -35 35 0 33 2 35 35
35 33 0 35 -2 35 -35z"/>
<path d="M2270 3411 l0 -41 41 0 40 0 -3 38 c-3 35 -5 37 -40 40 l-38 3 0 -40z"/>
<path d="M2570 3410 c0 -39 1 -40 35 -40 34 0 35 1 35 40 0 39 -1 40 -35 40
-34 0 -35 -1 -35 -40z"/>
<path d="M2420 3335 c0 -33 2 -35 35 -35 33 0 35 2 35 35 0 33 -2 35 -35 35
-33 0 -35 -2 -35 -35z"/>
<path d="M2120 3185 c0 -33 -2 -35 -35 -35 l-35 0 0 -75 0 -75 34 0 c33 0 35
-2 38 -37 l3 -38 73 -3 72 -3 0 41 0 40 40 0 41 0 -3 73 -3 72 -37 3 c-36 3
-38 5 -38 38 l0 34 -75 0 -75 0 0 -35z"/>
<path d="M2640 3110 l0 -110 110 0 110 0 0 110 0 110 -110 0 -110 0 0 -110z
m150 0 c0 -39 -1 -40 -35 -40 -34 0 -35 1 -35 40 0 39 1 40 35 40 34 0 35 -1
35 -40z"/>
<path d="M660 2220 l0 -60 38 2 c36 1 36 1 5 5 -27 4 -33 9 -33 28 0 17 7 25
23 28 l22 4 -22 2 c-38 2 -30 39 10 44 31 4 31 4 -5 5 l-38 2 0 -60z"/>
<path d="M854 2265 c-9 -23 3 -45 24 -45 10 0 23 -5 30 -12 9 -9 12 -9 12 0 0
7 -13 15 -30 19 -43 8 -41 40 3 46 l32 4 -33 1 c-21 1 -35 -3 -38 -13z"/>
<path d="M1062 2273 c13 -3 18 -18 21 -61 l3 -57 2 57 c2 50 5 57 25 61 12 2
2 4 -23 4 -25 1 -37 -1 -28 -4z"/>
<path d="M3683 2263 c-7 -2 -13 -9 -13 -15 0 -6 6 -6 15 2 16 13 45 7 45 -9 0
-6 -13 -26 -30 -44 -16 -19 -30 -37 -30 -41 0 -3 17 -5 38 -5 30 2 32 3 10 6
-32 5 -35 15 -12 33 49 41 32 96 -23 73z"/>
<path d="M3872 2258 c-28 -28 -5 -108 31 -108 6 0 1 7 -11 16 -18 12 -22 24
-20 52 3 42 33 56 55 26 7 -10 13 -13 13 -8 0 15 -22 34 -40 34 -9 0 -21 -5
-28 -12z"/>
<path d="M4079 2253 c-13 -16 -12 -17 3 -4 20 15 48 8 48 -12 0 -7 -13 -26
-30 -42 -39 -38 -38 -45 8 -44 30 2 32 3 10 6 -35 5 -35 10 -1 45 22 23 25 32
17 46 -15 24 -38 26 -55 5z"/>
<path d="M4280 2233 c-8 -21 -16 -41 -18 -45 -2 -5 8 -8 21 -8 14 0 27 -5 29
-12 3 -8 6 -7 10 3 3 9 2 22 -3 30 -6 10 -9 10 -9 2 0 -7 -7 -13 -15 -13 -18
0 -19 14 -4 41 6 11 9 25 7 30 -2 6 -10 -7 -18 -28z"/>
<path d="M904 2181 c-5 -5 -18 -11 -29 -14 l-20 -5 20 -1 c22 -1 52 15 44 23
-3 3 -10 2 -15 -3z"/>
<path d="M3926 2173 c-6 -14 -5 -15 5 -6 7 7 10 15 7 18 -3 3 -9 -2 -12 -12z"/>
<path d="M1234 1861 c-91 -23 -153 -104 -139 -179 10 -55 41 -109 67 -116 142
-38 288 78 264 208 -11 59 -42 85 -106 90 -30 3 -69 1 -86 -3z m62 -113 c18
-35 18 -109 0 -133 -14 -19 -15 -19 -36 0 -45 40 -65 138 -39 187 11 20 11 20
36 -4 14 -12 31 -35 39 -50z"/>
<path d="M660 1842 c0 -4 7 -18 16 -30 13 -18 15 -45 12 -132 l-3 -110 33 0
32 0 0 76 0 75 58 -49 c81 -70 133 -102 163 -102 23 0 27 5 33 38 3 20 6 83 6
140 l0 102 -36 0 c-29 0 -34 -3 -30 -17 13 -47 17 -123 7 -123 -16 0 -84 64
-112 105 -24 35 -24 35 -101 35 -43 0 -78 -3 -78 -8z"/>
<path d="M1846 1828 c-8 -30 -8 -153 0 -212 l7 -46 58 0 59 0 0 41 c0 22 5 50
11 61 9 17 17 19 51 14 32 -5 43 -3 54 11 7 10 14 21 14 26 0 11 -78 9 -100
-3 -18 -10 -19 -8 -13 22 12 67 21 80 51 76 16 -2 31 -12 37 -25 12 -29 65
-33 65 -5 0 9 3 27 6 40 l6 22 -150 0 c-147 0 -150 0 -156 -22z"/>
<path d="M2228 1785 c-2 -36 -2 -94 0 -129 4 -62 6 -65 36 -76 47 -17 176 -24
221 -11 68 19 68 17 73 155 l5 126 -36 0 -36 0 6 -119 c4 -84 3 -120 -6 -125
-15 -10 -82 -10 -111 -1 -22 7 -22 10 -16 89 4 44 9 98 13 119 l6 37 -76 0
-75 0 -4 -65z"/>
<path d="M2627 1833 c-18 -64 -17 -71 6 -77 15 -4 26 0 34 12 7 9 20 25 30 35
19 20 16 36 42 -225 1 -5 27 -8 60 -8 l58 0 6 116 c3 64 10 121 15 126 13 13
40 -1 48 -25 14 -46 48 -49 63 -6 25 72 32 69 -173 69 -167 0 -185 -2 -189
-17z"/>
<path d="M3086 1828 c-8 -30 -8 -186 0 -215 13 -50 198 -71 282 -33 l42 19 0
126 0 125 -36 0 c-32 0 -36 -2 -31 -22 3 -13 9 -66 13 -119 6 -95 6 -97 -16
-104 -29 -9 -96 -9 -111 1 -12 7 -7 192 6 227 6 15 -1 17 -68 17 -69 0 -75 -2
-81 -22z"/>
<path d="M3504 1824 c-8 -31 1 -227 10 -243 4 -6 35 -11 68 -11 l61 0 -6 45
c-11 74 32 70 55 -6 l11 -39 74 0 73 0 -6 28 c-4 15 -13 39 -20 54 -14 26 -20
29 -104 42 -8 1 9 10 37 20 29 10 55 21 58 25 2 5 2 31 -2 60 l-6 51 -148 0
-149 0 -6 -26z m176 -89 c-23 -28 -40 -18 -40 23 0 52 10 58 33 22 15 -24 17
-33 7 -45z"/>
<path d="M3936 1834 c-8 -20 -8 -178 0 -226 l7 -38 138 0 137 0 12 36 c14 40
14 39 -21 48 -21 5 -30 1 -43 -19 -14 -20 -25 -25 -61 -25 -40 0 -45 2 -45 23
0 12 7 33 16 45 14 20 22 22 54 17 32 -5 40 -3 49 14 6 11 11 22 11 25 0 10
-81 6 -102 -5 -17 -9 -19 -8 -15 8 3 10 9 33 12 51 6 30 10 33 38 30 22 -2 35
-10 42 -25 12 -29 65 -33 65 -5 0 9 3 27 6 40 l6 22 -150 0 c-127 0 -151 -2
-156 -16z"/>
<path d="M1480 1591 c0 -17 10 -18 140 -18 130 0 140 1 140 18 0 18 -10 19
-140 19 -130 0 -140 -1 -140 -19z"/>
<path d="M717 1022 c-12 -13 -17 -37 -17 -75 0 -46 4 -58 22 -71 12 -9 30 -16
40 -16 26 0 58 36 58 65 0 21 -5 25 -27 24 -17 -1 -21 -3 -10 -6 34 -9 13 -63
-24 -63 -42 0 -65 72 -39 121 12 21 50 25 68 7 6 -6 15 -8 19 -4 11 11 -26 36
-52 36 -12 0 -29 -8 -38 -18z"/>
<path d="M1085 1020 c-22 -25 -34 -135 -16 -153 8 -8 11 -3 11 21 0 31 1 32
45 32 44 0 45 -1 45 -31 0 -17 4 -28 10 -24 6 3 10 32 10 64 0 94 -58 143
-105 91z m73 -12 c7 -7 12 -27 12 -46 0 -33 0 -33 -42 -30 -36 2 -44 7 -46 25
-7 50 43 84 76 51z"/>
<path d="M1458 1029 c-15 -8 -18 -23 -16 -92 l2 -82 5 74 c5 57 10 77 24 85
29 17 47 -17 49 -93 l2 -66 5 74 c5 55 10 77 23 85 28 17 42 -8 49 -87 l6 -72
1 77 c2 85 -13 115 -52 103 -26 -8 -35 -8 -61 -1 -11 3 -28 1 -37 -5z"/>
<path d="M1862 953 l3 -88 48 -3 c28 -2 47 1 47 7 0 6 -18 11 -40 11 -38 0
-40 2 -40 30 0 25 4 30 24 30 14 0 28 5 31 10 4 6 -7 10 -24 10 -28 0 -31 3
-31 30 0 28 2 30 40 30 22 0 40 5 40 10 0 6 -23 10 -50 10 l-51 0 3 -87z"/>
<path d="M2475 1016 c-22 -34 -6 -61 42 -73 31 -7 38 -13 38 -33 0 -22 -5 -25
-43 -28 -46 -3 -49 -22 -4 -22 38 0 72 26 72 55 0 28 -12 37 -60 45 -29 4 -35
9 -35 30 0 22 5 25 43 28 53 4 55 22 2 22 -31 0 -43 -5 -55 -24z"/>
<path d="M2810 1030 c0 -5 11 -10 25 -10 24 0 25 -2 25 -74 0 -41 5 -78 10
-81 6 -4 10 23 10 74 0 80 0 81 25 81 14 0 25 5 25 10 0 6 -27 10 -60 10 -33
0 -60 -4 -60 -10z"/>
<path d="M3170 972 c0 -59 3 -72 23 -90 28 -27 48 -28 77 -4 17 14 23 32 27
84 4 43 2 68 -6 72 -8 5 -11 -12 -11 -58 0 -68 -14 -96 -49 -96 -31 0 -41 22
-41 92 0 39 -4 68 -10 68 -6 0 -10 -29 -10 -68z"/>
<path d="M3544 1027 c-3 -8 -4 -47 -2 -88 l3 -74 44 1 c55 1 81 28 81 86 0 52
-35 88 -85 88 -21 0 -38 -6 -41 -13z m94 -19 c7 -7 12 -33 12 -60 0 -52 -15
-68 -64 -68 -25 0 -26 2 -26 70 l0 70 33 0 c18 0 38 -5 45 -12z"/>
<path d="M3910 956 c0 -47 5 -88 10 -91 6 -4 10 27 10 84 0 54 -4 91 -10 91
-6 0 -10 -35 -10 -84z"/>
<path d="M4202 1024 c-18 -13 -22 -25 -22 -74 0 -49 4 -61 22 -74 54 -38 98
-3 98 78 0 45 -4 58 -22 70 -12 9 -29 16 -38 16 -9 0 -26 -7 -38 -16z m66 -12
c7 -5 15 -25 19 -45 10 -66 -41 -111 -81 -71 -18 18 -21 76 -6 105 11 20 45
25 68 11z"/>
</g>
</svg>
